<svg width="512" height="512" viewBox="0 0 512 512" fill="none" xmlns="http://www.w3.org/2000/svg">
<g clip-path="url(#clip0_2089_12)">
<rect width="512" height="512" rx="150" fill="white"/>
<rect width="103" height="512" fill="#2B82AF"/>
<rect x="102" width="103" height="512" fill="#4799BF"/>
<rect x="205" width="102" height="512" fill="#71C1CC"/>
<rect x="307" y="1" width="103" height="511" fill="#8FCCC7"/>
<rect x="409" width="103" height="512" fill="#5FBAB5"/>
<path d="M159.842 167.978H130.218C129.677 164.146 128.572 160.741 126.904 157.765C125.235 154.744 123.094 152.174 120.479 150.055C117.863 147.936 114.842 146.313 111.415 145.185C108.034 144.058 104.359 143.494 100.391 143.494C93.2217 143.494 86.9768 145.275 81.6562 148.838C76.3356 152.355 72.2099 157.495 69.279 164.258C66.3482 170.977 64.8828 179.138 64.8828 188.742C64.8828 198.617 66.3482 206.913 69.279 213.632C72.2549 220.35 76.4032 225.423 81.7238 228.849C87.0444 232.276 93.1992 233.99 100.188 233.99C104.111 233.99 107.741 233.471 111.077 232.434C114.459 231.397 117.457 229.886 120.073 227.903C122.688 225.873 124.852 223.416 126.566 220.53C128.324 217.645 129.542 214.353 130.218 210.656L159.842 210.791C159.075 217.149 157.159 223.281 154.093 229.188C151.072 235.049 146.991 240.302 141.851 244.946C136.756 249.546 130.669 253.198 123.59 255.903C116.556 258.564 108.597 259.894 99.7146 259.894C87.36 259.894 76.313 257.098 66.5736 251.507C56.8793 245.916 49.214 237.822 43.5778 227.226C37.9867 216.63 35.1911 203.802 35.1911 188.742C35.1911 173.637 38.0318 160.786 43.7131 150.19C49.3944 139.594 57.1048 131.523 66.8442 125.977C76.5836 120.386 87.5404 117.59 99.7146 117.59C107.741 117.59 115.18 118.718 122.034 120.972C128.933 123.227 135.043 126.518 140.363 130.847C145.684 135.13 150.012 140.383 153.349 146.606C156.731 152.828 158.895 159.952 159.842 167.978Z" fill="white"/>
<path d="M215.483 258V119.484H270.132C280.592 119.484 289.52 121.355 296.915 125.098C304.355 128.795 310.013 134.048 313.891 140.857C317.814 147.62 319.775 155.578 319.775 164.732C319.775 173.93 317.791 181.843 313.824 188.471C309.856 195.055 304.107 200.105 296.577 203.622C289.092 207.139 280.029 208.897 269.388 208.897H232.797V185.36H264.653C270.244 185.36 274.889 184.594 278.586 183.061C282.283 181.528 285.034 179.228 286.837 176.162C288.686 173.096 289.61 169.286 289.61 164.732C289.61 160.133 288.686 156.255 286.837 153.099C285.034 149.942 282.261 147.552 278.518 145.929C274.821 144.261 270.154 143.427 264.518 143.427H244.768V258H215.483ZM290.287 194.964L324.713 258H292.383L258.701 194.964H290.287Z" fill="white"/>
<path d="M375.006 258V119.484H468.342V143.63H404.292V176.635H463.54V200.781H404.292V233.854H468.612V258H375.006Z" fill="white"/>
<path d="M135.652 442.544V304.028H227.365V328.174H164.938V361.18H221.278V385.325H164.938V442.544H135.652Z" fill="white"/>
<path d="M335.094 304.028V442.544H305.808V304.028H335.094Z" fill="white"/>
</g>
<defs>
<clipPath id="clip0_2089_12">
<rect width="512" height="512" rx="150" fill="white"/>
</clipPath>
</defs>
</svg>
